<svg width="2151" height="171" viewBox="0 0 2151 171" fill="none" xmlns="http://www.w3.org/2000/svg">
<mask id="path-1-outside-1_10_355" maskUnits="userSpaceOnUse" x="0" y="0" width="2151" height="171" fill="black">
<rect fill="white" width="2151" height="171"/>
<path d="M235.103 145.143L118.358 9.51899L5.30199 145.143C4.434 146.156 4 147.385 4 148.832C4 153.027 6.09772 155.125 10.2929 155.125C12.0289 155.125 13.4757 154.402 14.6329 152.955L48.9186 111.725H190.401L225.989 152.955C227.291 154.402 228.882 155.125 230.763 155.125C234.669 155.125 236.622 153.172 236.622 149.266C236.622 147.675 236.116 146.3 235.103 145.143ZM59.1175 99.5732L118.575 28.1808L180.202 99.5732H59.1175ZM353.584 20.1519V150.351C353.584 154.257 355.537 156.21 359.443 156.21C363.494 156.21 365.519 154.257 365.519 150.351V20.1519C365.519 16.1012 363.494 14.0759 359.443 14.0759C355.537 14.0759 353.584 16.1012 353.584 20.1519ZM816.658 42.0687C807.833 31.7976 796.332 23.7687 782.155 17.9819C767.978 12.1951 752.861 9.30199 736.803 9.30199C710.329 9.30199 687.761 16.3908 669.099 30.5678C649.859 45.1788 640.239 62.9721 640.239 83.9493C640.239 104.927 649.859 122.72 669.099 137.331C687.761 151.508 710.329 158.597 736.803 158.597C752.861 158.597 767.979 155.703 782.155 149.917C796.332 144.13 807.833 136.101 816.658 125.83C819.262 122.647 819.117 119.826 816.224 117.367C815.067 116.354 813.693 115.848 812.101 115.848C810.365 115.848 808.919 116.499 807.761 117.801C799.805 126.77 789.569 133.823 777.056 138.958C764.543 144.094 751.125 146.662 736.803 146.662C713.513 146.662 693.62 140.514 677.128 128.217C660.637 115.92 652.391 101.164 652.391 83.9493C652.391 66.7349 660.637 51.979 677.128 39.6817C693.62 27.3844 713.513 21.2369 736.803 21.2369C751.125 21.2369 764.542 23.8046 777.056 28.9403C789.57 34.076 799.804 41.1286 807.761 50.0976C808.919 51.3996 810.365 52.0506 812.101 52.0506C813.693 52.0506 815.067 51.5444 816.224 50.5316C819.117 48.0724 819.262 45.2514 816.658 42.0687ZM1030.18 10.387C1003.86 10.387 981.288 17.5479 962.481 31.8698C943.24 46.4808 933.62 64.2741 933.62 85.2513C933.62 106.229 943.24 124.022 962.481 138.633C981.143 152.81 1003.71 159.899 1030.18 159.899C1056.66 159.899 1079.15 152.81 1097.67 138.633C1116.91 123.877 1126.53 106.083 1126.53 85.2513C1126.53 64.4195 1116.91 46.6257 1097.67 31.8698C1078.86 17.5479 1056.37 10.387 1030.18 10.387ZM1114.6 85.2513C1114.6 102.466 1106.35 117.187 1089.86 129.41C1073.37 141.634 1053.47 147.747 1030.18 147.747C1006.89 147.747 987.002 141.635 970.51 129.41C954.018 117.186 945.772 102.466 945.772 85.2513C945.772 67.8915 954.018 53.0987 970.51 40.8752C987.002 28.6517 1006.89 22.5389 1030.18 22.5389C1053.47 22.5389 1073.37 28.6512 1089.86 40.8752C1106.35 53.0993 1114.6 67.8915 1114.6 85.2513ZM1377.38 16.8969C1369.57 14.1482 1361.69 12.774 1353.73 12.774H1239.15V155.125H1353.73C1361.69 155.125 1369.57 153.75 1377.38 151.002C1391.56 146.083 1403.02 137.439 1411.78 125.07C1420.53 112.702 1424.9 98.9938 1424.9 83.9493C1424.9 68.9049 1420.53 55.1971 1411.78 42.8282C1403.02 30.4593 1391.56 21.8157 1377.38 16.8969ZM1373.48 139.718C1367.4 141.888 1360.82 142.974 1353.73 142.974H1251.31V24.9267H1353.73C1360.82 24.9267 1367.4 26.0117 1373.48 28.1817C1385.19 32.3769 1394.67 39.6099 1401.9 49.8815C1409.14 60.1531 1412.75 71.5086 1412.75 83.9502C1412.75 96.3918 1409.14 107.748 1401.9 118.019C1394.67 128.289 1385.19 135.522 1373.48 139.718ZM1540.56 20.1519V150.351C1540.56 154.257 1542.52 156.21 1546.42 156.21C1550.47 156.21 1552.5 154.257 1552.5 150.351V20.1519C1552.5 16.1012 1550.47 14.0759 1546.42 14.0759C1542.52 14.0759 1540.56 16.1012 1540.56 20.1519ZM1848.05 14.0759C1844 14.0759 1841.97 16.1012 1841.97 20.1519V138.199L1668.38 8V150.351C1668.38 154.257 1670.4 156.21 1674.45 156.21C1678.5 156.21 1680.53 154.257 1680.53 150.351V32.0868L1854.13 162.286V20.1519C1854.13 16.1012 1852.1 14.0759 1848.05 14.0759ZM2065.05 100.875C2061 100.875 2058.97 102.9 2058.97 106.951C2058.97 110.857 2061 112.81 2065.05 112.81H2134.92V120.188C2126.97 128.868 2116.84 135.631 2104.54 140.477C2092.25 145.323 2079.08 147.747 2065.05 147.747C2041.76 147.747 2021.87 141.635 2005.37 129.41C1988.88 117.186 1980.64 102.466 1980.64 85.2513C1980.64 67.8915 1988.88 53.0987 2005.37 40.8752C2021.87 28.6517 2041.76 22.5389 2065.05 22.5389C2079.37 22.5389 2092.79 25.0706 2105.3 30.1338C2117.82 35.197 2127.98 42.213 2135.79 51.1826C2136.95 52.6294 2138.47 53.3526 2140.35 53.3526C2144.4 53.3526 2146.42 51.3274 2146.42 47.2767C2146.42 45.8299 2145.92 44.528 2144.9 43.3707C2135.79 33.0996 2124.22 25.0344 2110.18 19.1754C2096.15 13.3165 2081.11 10.387 2065.05 10.387C2038.72 10.387 2016.15 17.5479 1997.35 31.8698C1978.1 46.4808 1968.48 64.2741 1968.48 85.2513C1968.48 106.229 1978.1 124.022 1997.35 138.633C2016.01 152.81 2038.58 159.899 2065.05 159.899C2092.68 159.899 2115.97 152.159 2134.92 136.68V150.351C2134.92 154.257 2136.95 156.21 2141 156.21C2144.9 156.21 2146.86 154.257 2146.86 150.351V100.875H2065.05Z"/>
</mask>
<path d="M235.103 145.143L118.358 9.51899L5.30199 145.143C4.434 146.156 4 147.385 4 148.832C4 153.027 6.09772 155.125 10.2929 155.125C12.0289 155.125 13.4757 154.402 14.6329 152.955L48.9186 111.725H190.401L225.989 152.955C227.291 154.402 228.882 155.125 230.763 155.125C234.669 155.125 236.622 153.172 236.622 149.266C236.622 147.675 236.116 146.3 235.103 145.143ZM59.1175 99.5732L118.575 28.1808L180.202 99.5732H59.1175ZM353.584 20.1519V150.351C353.584 154.257 355.537 156.21 359.443 156.21C363.494 156.21 365.519 154.257 365.519 150.351V20.1519C365.519 16.1012 363.494 14.0759 359.443 14.0759C355.537 14.0759 353.584 16.1012 353.584 20.1519ZM816.658 42.0687C807.833 31.7976 796.332 23.7687 782.155 17.9819C767.978 12.1951 752.861 9.30199 736.803 9.30199C710.329 9.30199 687.761 16.3908 669.099 30.5678C649.859 45.1788 640.239 62.9721 640.239 83.9493C640.239 104.927 649.859 122.72 669.099 137.331C687.761 151.508 710.329 158.597 736.803 158.597C752.861 158.597 767.979 155.703 782.155 149.917C796.332 144.13 807.833 136.101 816.658 125.83C819.262 122.647 819.117 119.826 816.224 117.367C815.067 116.354 813.693 115.848 812.101 115.848C810.365 115.848 808.919 116.499 807.761 117.801C799.805 126.77 789.569 133.823 777.056 138.958C764.543 144.094 751.125 146.662 736.803 146.662C713.513 146.662 693.62 140.514 677.128 128.217C660.637 115.92 652.391 101.164 652.391 83.9493C652.391 66.7349 660.637 51.979 677.128 39.6817C693.62 27.3844 713.513 21.2369 736.803 21.2369C751.125 21.2369 764.542 23.8046 777.056 28.9403C789.57 34.076 799.804 41.1286 807.761 50.0976C808.919 51.3996 810.365 52.0506 812.101 52.0506C813.693 52.0506 815.067 51.5444 816.224 50.5316C819.117 48.0724 819.262 45.2514 816.658 42.0687ZM1030.18 10.387C1003.86 10.387 981.288 17.5479 962.481 31.8698C943.24 46.4808 933.62 64.2741 933.62 85.2513C933.62 106.229 943.24 124.022 962.481 138.633C981.143 152.81 1003.71 159.899 1030.18 159.899C1056.66 159.899 1079.15 152.81 1097.67 138.633C1116.91 123.877 1126.53 106.083 1126.53 85.2513C1126.53 64.4195 1116.91 46.6257 1097.67 31.8698C1078.86 17.5479 1056.37 10.387 1030.18 10.387ZM1114.6 85.2513C1114.6 102.466 1106.35 117.187 1089.86 129.41C1073.37 141.634 1053.47 147.747 1030.18 147.747C1006.89 147.747 987.002 141.635 970.51 129.41C954.018 117.186 945.772 102.466 945.772 85.2513C945.772 67.8915 954.018 53.0987 970.51 40.8752C987.002 28.6517 1006.89 22.5389 1030.18 22.5389C1053.47 22.5389 1073.37 28.6512 1089.86 40.8752C1106.35 53.0993 1114.6 67.8915 1114.6 85.2513ZM1377.38 16.8969C1369.57 14.1482 1361.69 12.774 1353.73 12.774H1239.15V155.125H1353.73C1361.69 155.125 1369.57 153.75 1377.38 151.002C1391.56 146.083 1403.02 137.439 1411.78 125.07C1420.53 112.702 1424.9 98.9938 1424.9 83.9493C1424.9 68.9049 1420.53 55.1971 1411.78 42.8282C1403.02 30.4593 1391.56 21.8157 1377.38 16.8969ZM1373.48 139.718C1367.4 141.888 1360.82 142.974 1353.73 142.974H1251.31V24.9267H1353.73C1360.82 24.9267 1367.4 26.0117 1373.48 28.1817C1385.19 32.3769 1394.67 39.6099 1401.9 49.8815C1409.14 60.1531 1412.75 71.5086 1412.75 83.9502C1412.75 96.3918 1409.14 107.748 1401.9 118.019C1394.67 128.289 1385.19 135.522 1373.48 139.718ZM1540.56 20.1519V150.351C1540.56 154.257 1542.52 156.21 1546.42 156.21C1550.47 156.21 1552.5 154.257 1552.5 150.351V20.1519C1552.5 16.1012 1550.47 14.0759 1546.42 14.0759C1542.52 14.0759 1540.56 16.1012 1540.56 20.1519ZM1848.05 14.0759C1844 14.0759 1841.97 16.1012 1841.97 20.1519V138.199L1668.38 8V150.351C1668.38 154.257 1670.4 156.21 1674.45 156.21C1678.5 156.21 1680.53 154.257 1680.53 150.351V32.0868L1854.13 162.286V20.1519C1854.13 16.1012 1852.1 14.0759 1848.05 14.0759ZM2065.05 100.875C2061 100.875 2058.97 102.9 2058.97 106.951C2058.97 110.857 2061 112.81 2065.05 112.81H2134.92V120.188C2126.97 128.868 2116.84 135.631 2104.54 140.477C2092.25 145.323 2079.08 147.747 2065.05 147.747C2041.76 147.747 2021.87 141.635 2005.37 129.41C1988.88 117.186 1980.64 102.466 1980.64 85.2513C1980.64 67.8915 1988.88 53.0987 2005.37 40.8752C2021.87 28.6517 2041.76 22.5389 2065.05 22.5389C2079.37 22.5389 2092.79 25.0706 2105.3 30.1338C2117.82 35.197 2127.98 42.213 2135.79 51.1826C2136.95 52.6294 2138.47 53.3526 2140.35 53.3526C2144.4 53.3526 2146.42 51.3274 2146.42 47.2767C2146.42 45.8299 2145.92 44.528 2144.9 43.3707C2135.79 33.0996 2124.22 25.0344 2110.18 19.1754C2096.15 13.3165 2081.11 10.387 2065.05 10.387C2038.72 10.387 2016.15 17.5479 1997.35 31.8698C1978.1 46.4808 1968.48 64.2741 1968.48 85.2513C1968.48 106.229 1978.1 124.022 1997.35 138.633C2016.01 152.81 2038.58 159.899 2065.05 159.899C2092.68 159.899 2115.97 152.159 2134.92 136.68V150.351C2134.92 154.257 2136.95 156.21 2141 156.21C2144.9 156.21 2146.86 154.257 2146.86 150.351V100.875H2065.05Z" fill="white"/>
<path d="M235.103 145.143L118.358 9.51899L5.30199 145.143C4.434 146.156 4 147.385 4 148.832C4 153.027 6.09772 155.125 10.2929 155.125C12.0289 155.125 13.4757 154.402 14.6329 152.955L48.9186 111.725H190.401L225.989 152.955C227.291 154.402 228.882 155.125 230.763 155.125C234.669 155.125 236.622 153.172 236.622 149.266C236.622 147.675 236.116 146.3 235.103 145.143ZM59.1175 99.5732L118.575 28.1808L180.202 99.5732H59.1175ZM353.584 20.1519V150.351C353.584 154.257 355.537 156.21 359.443 156.21C363.494 156.21 365.519 154.257 365.519 150.351V20.1519C365.519 16.1012 363.494 14.0759 359.443 14.0759C355.537 14.0759 353.584 16.1012 353.584 20.1519ZM816.658 42.0687C807.833 31.7976 796.332 23.7687 782.155 17.9819C767.978 12.1951 752.861 9.30199 736.803 9.30199C710.329 9.30199 687.761 16.3908 669.099 30.5678C649.859 45.1788 640.239 62.9721 640.239 83.9493C640.239 104.927 649.859 122.72 669.099 137.331C687.761 151.508 710.329 158.597 736.803 158.597C752.861 158.597 767.979 155.703 782.155 149.917C796.332 144.13 807.833 136.101 816.658 125.83C819.262 122.647 819.117 119.826 816.224 117.367C815.067 116.354 813.693 115.848 812.101 115.848C810.365 115.848 808.919 116.499 807.761 117.801C799.805 126.77 789.569 133.823 777.056 138.958C764.543 144.094 751.125 146.662 736.803 146.662C713.513 146.662 693.62 140.514 677.128 128.217C660.637 115.92 652.391 101.164 652.391 83.9493C652.391 66.7349 660.637 51.979 677.128 39.6817C693.62 27.3844 713.513 21.2369 736.803 21.2369C751.125 21.2369 764.542 23.8046 777.056 28.9403C789.57 34.076 799.804 41.1286 807.761 50.0976C808.919 51.3996 810.365 52.0506 812.101 52.0506C813.693 52.0506 815.067 51.5444 816.224 50.5316C819.117 48.0724 819.262 45.2514 816.658 42.0687ZM1030.18 10.387C1003.86 10.387 981.288 17.5479 962.481 31.8698C943.24 46.4808 933.62 64.2741 933.62 85.2513C933.62 106.229 943.24 124.022 962.481 138.633C981.143 152.81 1003.71 159.899 1030.18 159.899C1056.66 159.899 1079.15 152.81 1097.67 138.633C1116.91 123.877 1126.53 106.083 1126.53 85.2513C1126.53 64.4195 1116.91 46.6257 1097.67 31.8698C1078.86 17.5479 1056.37 10.387 1030.18 10.387ZM1114.6 85.2513C1114.6 102.466 1106.35 117.187 1089.86 129.41C1073.37 141.634 1053.47 147.747 1030.18 147.747C1006.89 147.747 987.002 141.635 970.51 129.41C954.018 117.186 945.772 102.466 945.772 85.2513C945.772 67.8915 954.018 53.0987 970.51 40.8752C987.002 28.6517 1006.89 22.5389 1030.18 22.5389C1053.47 22.5389 1073.37 28.6512 1089.86 40.8752C1106.35 53.0993 1114.6 67.8915 1114.6 85.2513ZM1377.38 16.8969C1369.57 14.1482 1361.69 12.774 1353.73 12.774H1239.15V155.125H1353.73C1361.69 155.125 1369.57 153.75 1377.38 151.002C1391.56 146.083 1403.02 137.439 1411.78 125.07C1420.53 112.702 1424.9 98.9938 1424.9 83.9493C1424.9 68.9049 1420.53 55.1971 1411.78 42.8282C1403.02 30.4593 1391.56 21.8157 1377.38 16.8969ZM1373.48 139.718C1367.4 141.888 1360.82 142.974 1353.73 142.974H1251.31V24.9267H1353.73C1360.82 24.9267 1367.4 26.0117 1373.48 28.1817C1385.19 32.3769 1394.67 39.6099 1401.9 49.8815C1409.14 60.1531 1412.75 71.5086 1412.75 83.9502C1412.75 96.3918 1409.14 107.748 1401.9 118.019C1394.67 128.289 1385.19 135.522 1373.48 139.718ZM1540.56 20.1519V150.351C1540.56 154.257 1542.52 156.21 1546.42 156.21C1550.47 156.21 1552.5 154.257 1552.5 150.351V20.1519C1552.5 16.1012 1550.47 14.0759 1546.42 14.0759C1542.52 14.0759 1540.56 16.1012 1540.56 20.1519ZM1848.05 14.0759C1844 14.0759 1841.97 16.1012 1841.97 20.1519V138.199L1668.38 8V150.351C1668.38 154.257 1670.4 156.21 1674.45 156.21C1678.5 156.21 1680.53 154.257 1680.53 150.351V32.0868L1854.13 162.286V20.1519C1854.13 16.1012 1852.1 14.0759 1848.05 14.0759ZM2065.05 100.875C2061 100.875 2058.97 102.9 2058.97 106.951C2058.97 110.857 2061 112.81 2065.05 112.81H2134.92V120.188C2126.97 128.868 2116.84 135.631 2104.54 140.477C2092.25 145.323 2079.08 147.747 2065.05 147.747C2041.76 147.747 2021.87 141.635 2005.37 129.41C1988.88 117.186 1980.64 102.466 1980.64 85.2513C1980.64 67.8915 1988.88 53.0987 2005.37 40.8752C2021.87 28.6517 2041.76 22.5389 2065.05 22.5389C2079.37 22.5389 2092.79 25.0706 2105.3 30.1338C2117.82 35.197 2127.98 42.213 2135.79 51.1826C2136.95 52.6294 2138.47 53.3526 2140.35 53.3526C2144.4 53.3526 2146.42 51.3274 2146.42 47.2767C2146.42 45.8299 2145.92 44.528 2144.9 43.3707C2135.79 33.0996 2124.22 25.0344 2110.18 19.1754C2096.15 13.3165 2081.11 10.387 2065.05 10.387C2038.72 10.387 2016.15 17.5479 1997.35 31.8698C1978.1 46.4808 1968.48 64.2741 1968.48 85.2513C1968.48 106.229 1978.1 124.022 1997.35 138.633C2016.01 152.81 2038.58 159.899 2065.05 159.899C2092.68 159.899 2115.97 152.159 2134.92 136.68V150.351C2134.92 154.257 2136.95 156.21 2141 156.21C2144.9 156.21 2146.86 154.257 2146.86 150.351V100.875H2065.05Z" stroke="white" stroke-width="8" mask="url(#path-1-outside-1_10_355)"/>
</svg>
